<?xml version="1.0" encoding="utf-8"?>
<!-- Generator: Adobe Illustrator 13.0.0, SVG Export Plug-In . SVG Version: 6.00 Build 14948)  -->
<!DOCTYPE svg PUBLIC "-//W3C//DTD SVG 1.1//EN" "http://www.w3.org/Graphics/SVG/1.1/DTD/svg11.dtd">
<svg version="1.1" id="Layer_1" xmlns="http://www.w3.org/2000/svg" xmlns:xlink="http://www.w3.org/1999/xlink" x="0px" y="0px"
	 width="24px" height="24px" viewBox="0 0 24 24" enable-background="new 0 0 24 24" xml:space="preserve">
<path d="M21.414,6.774l-7.999-4.8c-0.437-0.261-0.926-0.393-1.416-0.393c-0.488,0-0.98,0.132-1.416,0.393l-7.998,4.8
	C1.756,7.271,1.25,8.166,1.25,9.131V20c0,1.518,1.231,2.748,2.75,2.748l16,0.002c1.518-0.002,2.748-1.232,2.748-2.75L22.75,9.131
	C22.748,8.166,22.242,7.271,21.414,6.774z M17.43,12.613l-5.001,3.5C12.3,16.204,12.15,16.249,12,16.249s-0.301-0.045-0.431-0.136
	l-4.999-3.5c-0.339-0.236-0.422-0.703-0.185-1.042c0.238-0.341,0.706-0.424,1.045-0.185l4.569,3.196l4.57-3.196
	c0.34-0.239,0.807-0.154,1.044,0.185C17.852,11.908,17.768,12.375,17.43,12.613z"/>
</svg>
