<svg xmlns="http://www.w3.org/2000/svg" viewBox="0 0 512 512" style="enable-background:new 0 0 512 512" xml:space="preserve"><path style="fill:#f8f8f9" d="m178.886 386.779-53.666-53.667-107.33 161z"/><path style="fill:#ededed" d="M152.053 359.946 17.89 494.112l160.996-107.333z"/><path style="fill:#80cb93" d="M438.275 198.947 313.053 73.725 116.277 252.614l143.11 143.109z"/><path style="fill:#6dc180" d="m438.275 198.947-62.611-62.61-187.831 187.832 71.554 71.554z"/><path style="fill:#95d5a7" d="M0 225.78c29.64-29.638 77.692-29.638 107.331 0L286.22 404.668c29.64 29.638 29.64 77.694 0 107.333L0 225.78zM500.884 225.781c14.821-14.82 14.821-38.848 0-53.667L339.886 11.115c-14.819-14.821-38.847-14.82-53.666 0-14.819 14.819-14.819 38.847 0 53.666L447.219 225.78c14.818 14.821 38.847 14.821 53.665.001z"/><path style="fill:#80cb93" d="m500.884 172.115-80.499-80.5-53.666 53.666 80.499 80.5c14.819 14.82 38.847 14.82 53.666.001 14.821-14.821 14.821-38.848 0-53.667zM286.22 404.668l-89.444-89.444-53.666 53.666L286.22 512c29.639-29.638 29.639-77.694 0-107.332z"/></svg>